# xmcd CD database file
#
# Track frame offsets:
#	150
#	13187
#	25987
#	40087
#	52750
#	68400
#	80462
#	92500
#	105375
#	117587
#	129575
#	139912
#	151525
#	162600
#	174650
#	185162
#	198137
#	211562
#	225225
#	238050
#
# Disc length: 3349 seconds
#
# Revision: 0
# Processed by: cddbd v1.5.2PL0 Copyright (c) Steve Scherf et al.
# Submitted via: CDex 1.70beta2
#
DISCID=f90d1314
DTITLE=Various Artist - Country Love Songs 20 C&W Hits
DYEAR=1994
DGENRE=Country
TTITLE0=Ferlin Huskey - Behind Closed Doors
TTITLE1=Wanda Jackson - Crazy
TTITLE2=George Jones - All I Have tO Offer You Is Me
TTITLE3=Lynn Anderson - Stand By Your Man
TTITLE4=Kenny rogers - For The Good Times
TTITLE5=Billie Jo Spears - Ease The Want In Me
TTITLE6=Don Gibson - I Can't Stop Loving You
TTITLE7=Anne Murray - All The Time
TTITLE8=Stonewall Jackson - I Love You Because
TTITLE9=Patsy Cline - Today Tomorrow And Forever
TTITLE10=Don Williams - Take My Hand For A While
TTITLE11=Sammi Smith - Help Me Make It Through The Night
TTITLE12=Johnny Russell - Today I Started Loving You Again
TTITLE13=Wanda Jackson - Sweet Dreams
TTITLE14=Jim Reeves - Anna Marie
TTITLE15=Lynn Anderson - Top Of The World
TTITLE16=Ferlin Husky - Room Full Of Roses
TTITLE17=Billie Jo Spears - Fever
TTITLE18=George Jones - Don't Be Angry
TTITLE19=Dottie West - D I V O R C E
EXTD=YEAR: 1994
EXTT0=
EXTT1=
EXTT2=
EXTT3=
EXTT4=
EXTT5=
EXTT6=
EXTT7=
EXTT8=
EXTT9=
EXTT10=
EXTT11=
EXTT12=
EXTT13=
EXTT14=
EXTT15=
EXTT16=
EXTT17=
EXTT18=
EXTT19=
PLAYORDER=
